<svg width="300" height="170" viewBox="0 0 300 170" fill="none" xmlns="http://www.w3.org/2000/svg">
<path d="M128.871 95.5306L127.121 31.6493C127.121 29.6632 125.487 28.145 123.619 28.145C121.635 28.145 120.117 29.6632 120.117 31.6493L118.483 95.5306L120.117 126.244C120.117 128.23 121.751 129.749 123.619 129.749C125.603 129.749 127.121 128.23 127.121 126.244L128.871 95.5306Z" fill="url(#paint0_linear_24_2)"/>
<path d="M116.264 95.5306L114.28 29.1955C114.281 28.7659 114.197 28.3405 114.033 27.9436C113.869 27.5466 113.628 27.186 113.324 26.8824C113.021 26.5787 112.66 26.338 112.263 26.174C111.867 26.01 111.441 25.926 111.012 25.9268C110.583 25.9258 110.157 26.0098 109.76 26.1738C109.363 26.3377 109.002 26.5785 108.699 26.8823C108.395 27.1862 108.154 27.547 107.99 27.9441C107.826 28.3413 107.742 28.7669 107.743 29.1966L105.993 95.4146L107.744 126.362C107.743 126.791 107.827 127.217 107.991 127.614C108.155 128.011 108.395 128.372 108.699 128.676C109.003 128.98 109.363 129.221 109.76 129.385C110.157 129.549 110.583 129.633 111.012 129.633C111.442 129.634 111.867 129.55 112.264 129.386C112.661 129.221 113.022 128.981 113.326 128.677C113.63 128.373 113.871 128.012 114.035 127.614C114.199 127.217 114.283 126.791 114.282 126.362L116.264 95.5306Z" fill="url(#paint1_linear_24_2)"/>
<path d="M89.0666 29.6632C88.9494 28.145 87.7822 26.8612 86.2658 26.8612C84.7494 26.8612 83.5799 28.0289 83.4639 29.6632L81.4788 95.4134L83.4639 126.828C83.4639 128.346 84.7483 129.514 86.2647 129.514C87.781 129.514 88.9506 128.346 89.0666 126.712L91.4009 95.2961L89.0666 29.6632Z" fill="url(#paint2_linear_24_2)"/>
<path d="M101.673 27.445C101.673 25.8095 100.273 24.4085 98.6384 24.4085C98.2389 24.4054 97.8428 24.4818 97.4732 24.6333C97.1035 24.7848 96.7677 25.0083 96.4852 25.2909C96.2028 25.5735 95.9793 25.9095 95.8279 26.2793C95.6765 26.6491 95.6001 27.0454 95.6032 27.445L93.7365 95.4134L95.6032 126.595C95.6032 128.23 97.0048 129.631 98.6384 129.631C100.273 129.631 101.556 128.346 101.673 126.595L103.775 95.4134L101.673 27.445Z" fill="url(#paint3_linear_24_2)"/>
<path d="M38.0553 128.813C38.9893 128.813 39.6901 128.113 39.8061 127.063L42.8412 95.4134L39.8061 62.7148C39.6889 61.7792 38.9893 60.962 38.0553 60.962C37.1213 60.962 36.4217 61.6631 36.3046 62.7136L33.6198 95.4134L36.3046 127.063C36.3046 128.113 37.1213 128.813 38.0553 128.813Z" fill="url(#paint4_linear_24_2)"/>
<path d="M141.595 95.5306L139.961 19.6203C139.961 18.3354 139.261 17.1676 138.21 16.4665C137.626 16.116 136.927 15.7654 136.109 15.7654C135.409 15.7654 134.708 15.9999 134.008 16.3505C132.958 17.0504 132.257 18.2181 132.257 19.5031V20.2042L130.856 95.4146L132.257 125.895V126.012C132.257 126.828 132.607 127.647 133.191 128.23C133.892 129.048 134.942 129.631 136.109 129.631C137.16 129.631 138.094 129.165 138.793 128.581C139.494 127.88 139.961 126.945 139.961 125.895L140.078 122.858L141.595 95.5306Z" fill="url(#paint5_linear_24_2)"/>
<path d="M51.9466 65.049C51.8294 63.8813 51.0126 63.0641 49.9615 63.0641C48.9103 63.0641 47.9775 63.8813 47.9775 65.049L45.526 95.4146L47.9775 127.296C48.0947 128.464 48.9115 129.281 49.9615 129.281C51.0126 129.281 51.9466 128.464 51.9466 127.296L54.7474 95.4134L51.9466 65.049Z" fill="url(#paint6_linear_24_2)"/>
<path d="M61.9848 43.7943C60.8176 43.7943 59.7676 44.7288 59.7676 46.0137L57.4333 95.4134L59.7665 127.296C59.8837 128.581 60.8165 129.514 61.9836 129.514C63.1508 129.514 64.202 128.581 64.202 127.296L66.8867 95.4134L64.202 46.0137C64.202 44.846 63.1508 43.7943 61.9836 43.7943" fill="url(#paint7_linear_24_2)"/>
<path d="M76.4597 127.296L78.9112 95.5306L76.4597 34.8019C76.3425 33.4009 75.2925 32.3492 73.8921 32.3492C72.4905 32.3492 71.4406 33.4009 71.3234 34.8019L69.1062 95.5306L71.3234 127.296C71.3234 128.697 72.4905 129.749 73.8921 129.749C75.2925 129.866 76.3436 128.697 76.4597 127.296Z" fill="url(#paint8_linear_24_2)"/>
<path d="M150.817 9.22689C150.183 8.84243 149.456 8.64001 148.716 8.64186C147.778 8.64871 146.871 8.97871 146.148 9.57627C145.214 10.2774 144.631 11.4451 144.631 12.7301V13.1967L142.996 95.6467L143.814 110.829L144.631 125.66C144.631 127.88 146.498 129.631 148.716 129.631C150.933 129.631 152.685 127.763 152.802 125.544L154.553 95.5306L152.802 12.7301C152.685 11.2118 151.984 9.928 150.817 9.22689Z" fill="url(#paint9_linear_24_2)"/>
<path d="M3.38689 112.932C3.97048 112.932 4.43688 112.464 4.55407 111.764L7.12162 95.4134L4.55407 78.8296C4.43688 78.1297 3.97048 77.6619 3.38689 77.6619C3.07771 77.6631 2.78156 77.7865 2.56293 78.0052C2.34431 78.224 2.22095 78.5203 2.21971 78.8296L0.00137329 95.4134L2.21971 111.764C2.21971 112.464 2.8033 112.932 3.38689 112.932Z" fill="url(#paint10_linear_24_2)"/>
<path d="M14.4762 122.857C15.0598 122.857 15.6434 122.391 15.7594 121.691L19.1461 95.4134L15.7594 68.5534C15.6422 67.8523 15.1758 67.3845 14.4762 67.3845C13.8926 67.3845 13.3091 67.8523 13.1919 68.5534L10.2739 95.4134L13.1919 121.691C13.3091 122.391 13.7755 122.857 14.4762 122.857Z" fill="url(#paint11_linear_24_2)"/>
<path d="M26.1492 127.647C26.966 127.647 27.5496 127.063 27.6668 126.128L30.8191 95.4134L27.6668 63.5308C27.5496 62.7136 26.966 62.0125 26.1492 62.0125C25.3324 62.0125 24.7488 62.5963 24.6316 63.5308L21.8309 95.4134L24.6316 126.128C24.7488 126.945 25.3324 127.647 26.1492 127.647Z" fill="url(#paint12_linear_24_2)"/>
<path d="M262.061 56.2899C257.042 56.2899 252.256 57.3416 247.82 59.0932C244.902 26.0428 217.12 0 183.268 0C175.239 0.00691748 167.282 1.51184 159.805 4.43759C157.004 5.48924 156.303 6.65697 156.303 8.7591V125.427C156.303 127.647 158.054 129.398 160.273 129.631H262.178C282.489 129.631 298.949 113.398 298.949 93.0779C298.831 72.7576 282.373 56.2899 262.061 56.2899Z" fill="url(#paint13_linear_24_2)"/>
<path d="M29.3003 151.821C24.982 150.77 23.8148 150.302 23.8148 148.551C23.8148 147.383 24.7488 146.098 27.6667 146.098C30.1183 146.098 32.1023 147.15 33.8542 148.9L37.8221 145.048C35.2534 142.362 32.1022 140.726 27.8999 140.726C22.5305 140.726 18.211 143.763 18.211 148.668C18.211 154.04 21.7137 155.674 26.7328 156.726C31.869 157.894 32.803 158.711 32.803 160.462C32.803 162.565 31.2855 163.382 28.0171 163.382C25.4484 163.382 22.9969 162.448 21.0129 160.229L17.0438 163.732C19.1449 166.769 23.114 168.638 27.5496 168.638C35.0202 168.638 38.1725 165.134 38.1725 159.996C38.4057 154.273 33.6186 152.755 29.3003 151.821ZM54.3993 140.843C46.9287 140.843 42.6092 146.565 42.6092 154.857C42.6092 163.15 47.0447 168.871 54.3981 168.871C61.7516 168.871 66.1883 163.15 66.1883 154.857C66.1883 146.565 61.7528 140.843 54.3993 140.843ZM54.3993 163.383C49.9626 163.383 48.2119 159.645 48.2119 154.74C48.2119 149.834 50.0798 146.099 54.3993 146.099C58.8348 146.099 60.5868 149.836 60.5868 154.74C60.5868 159.645 58.7176 163.383 54.3993 163.383ZM88.1338 156.493C88.1338 160.813 86.0326 163.499 82.5311 163.499C79.0296 163.499 76.9284 160.697 76.9284 156.375V141.193H71.4417V156.493C71.4417 164.433 75.8772 168.871 82.4139 168.871C89.3009 168.871 93.3872 164.317 93.3872 156.493V141.31H87.9006V156.493H88.1338ZM116.966 152.755C116.966 154.273 117.084 157.66 117.084 158.711C116.732 158.011 115.799 156.609 115.216 155.674L105.527 141.31H100.274V168.522H105.644V156.493C105.644 154.974 105.527 151.587 105.527 150.537C105.878 151.237 106.811 152.638 107.395 153.573L117.317 168.404H122.22V141.193H116.848V152.755H116.966ZM137.861 141.194H129.34V168.404H137.394C144.398 168.404 151.286 164.317 151.286 154.857C151.286 144.814 145.566 141.194 137.861 141.194ZM137.394 163.148H134.71V146.566H137.627C143.347 146.566 145.799 149.368 145.799 154.857C145.799 159.762 143.114 163.148 137.394 163.148ZM168.095 146.215C170.546 146.215 172.063 147.266 173.114 149.135L178.133 146.799C176.382 143.296 173.347 140.726 168.211 140.726C161.091 140.726 156.187 146.449 156.187 154.74C156.187 163.266 160.973 168.755 168.094 168.755C172.997 168.755 176.265 166.419 178.133 162.565L173.58 159.88C172.18 162.331 170.662 163.383 168.211 163.383C164.126 163.383 161.791 159.645 161.791 154.74C161.791 149.718 164.126 146.215 168.095 146.215ZM188.288 141.194H182.803V168.404H199.144V163.032H188.288V141.194ZM213.502 140.842C206.032 140.842 201.713 146.566 201.713 154.857C201.713 163.148 206.149 168.871 213.502 168.871C220.973 168.871 225.292 163.15 225.292 154.857C225.292 146.565 220.973 140.843 213.503 140.843M213.503 163.384C209.068 163.384 207.316 159.646 207.316 154.741C207.316 149.836 209.185 146.1 213.503 146.1C217.94 146.1 219.691 149.837 219.691 154.741C219.691 159.646 217.94 163.384 213.503 163.384ZM247.239 156.494C247.239 160.814 245.138 163.5 241.636 163.5C238.134 163.5 236.032 160.698 236.032 156.377V141.194H230.547V156.494C230.547 164.435 234.982 168.872 241.519 168.872C248.406 168.872 252.491 164.318 252.491 156.494V141.311H247.006V156.494H247.239ZM268.016 141.194H259.496V168.406H267.55C274.554 168.406 281.441 164.319 281.441 154.858C281.441 144.815 275.721 141.195 268.017 141.195M267.551 163.151H264.983V146.568H267.901C273.62 146.568 275.956 149.37 275.956 154.859C275.956 159.765 273.272 163.151 267.551 163.151Z" fill="#F04923"/>
<defs>
<linearGradient id="paint0_linear_24_2" x1="634.992" y1="-2786.38" x2="634.992" y2="10197.1" gradientUnits="userSpaceOnUse">
<stop stop-color="#F6871F"/>
<stop offset="0.2393" stop-color="#F57E20"/>
<stop offset="0.6262" stop-color="#F36621"/>
<stop offset="1" stop-color="#F04923"/>
</linearGradient>
<linearGradient id="paint1_linear_24_2" x1="621.699" y1="-2566.72" x2="621.699" y2="10416.7" gradientUnits="userSpaceOnUse">
<stop stop-color="#F6871F"/>
<stop offset="0.2393" stop-color="#F57E20"/>
<stop offset="0.6262" stop-color="#F36621"/>
<stop offset="1" stop-color="#F04923"/>
</linearGradient>
<linearGradient id="paint2_linear_24_2" x1="577.895" y1="-2659.16" x2="577.895" y2="10324.1" gradientUnits="userSpaceOnUse">
<stop stop-color="#F6871F"/>
<stop offset="0.2393" stop-color="#F57E20"/>
<stop offset="0.6262" stop-color="#F36621"/>
<stop offset="1" stop-color="#F04923"/>
</linearGradient>
<linearGradient id="paint3_linear_24_2" x1="595.004" y1="-2416.35" x2="595.004" y2="10567" gradientUnits="userSpaceOnUse">
<stop stop-color="#F6871F"/>
<stop offset="0.2393" stop-color="#F57E20"/>
<stop offset="0.6262" stop-color="#F36621"/>
<stop offset="1" stop-color="#F04923"/>
</linearGradient>
<linearGradient id="paint4_linear_24_2" x1="490.31" y1="-6035.23" x2="490.31" y2="6948.24" gradientUnits="userSpaceOnUse">
<stop stop-color="#F6871F"/>
<stop offset="0.2393" stop-color="#F57E20"/>
<stop offset="0.6262" stop-color="#F36621"/>
<stop offset="1" stop-color="#F04923"/>
</linearGradient>
<linearGradient id="paint5_linear_24_2" x1="669.426" y1="-1560.82" x2="669.426" y2="11422.7" gradientUnits="userSpaceOnUse">
<stop stop-color="#F6871F"/>
<stop offset="0.2393" stop-color="#F57E20"/>
<stop offset="0.6262" stop-color="#F36621"/>
<stop offset="1" stop-color="#F04923"/>
</linearGradient>
<linearGradient id="paint6_linear_24_2" x1="503.451" y1="-6243.29" x2="503.451" y2="6740.1" gradientUnits="userSpaceOnUse">
<stop stop-color="#F6871F"/>
<stop offset="0.2393" stop-color="#F57E20"/>
<stop offset="0.6262" stop-color="#F36621"/>
<stop offset="1" stop-color="#F04923"/>
</linearGradient>
<linearGradient id="paint7_linear_24_2" x1="526.286" y1="-4335.63" x2="526.286" y2="8647.75" gradientUnits="userSpaceOnUse">
<stop stop-color="#F6871F"/>
<stop offset="0.2393" stop-color="#F57E20"/>
<stop offset="0.6262" stop-color="#F36621"/>
<stop offset="1" stop-color="#F04923"/>
</linearGradient>
<linearGradient id="paint8_linear_24_2" x1="563.415" y1="-3202.65" x2="563.415" y2="9780.9" gradientUnits="userSpaceOnUse">
<stop stop-color="#F6871F"/>
<stop offset="0.2393" stop-color="#F57E20"/>
<stop offset="0.6262" stop-color="#F36621"/>
<stop offset="1" stop-color="#F04923"/>
</linearGradient>
<linearGradient id="paint9_linear_24_2" x1="721.234" y1="-855.587" x2="721.234" y2="12127.9" gradientUnits="userSpaceOnUse">
<stop stop-color="#F6871F"/>
<stop offset="0.2393" stop-color="#F57E20"/>
<stop offset="0.6262" stop-color="#F36621"/>
<stop offset="1" stop-color="#F04923"/>
</linearGradient>
<linearGradient id="paint10_linear_24_2" x1="358.328" y1="-7688.7" x2="358.328" y2="5295.01" gradientUnits="userSpaceOnUse">
<stop stop-color="#F6871F"/>
<stop offset="0.2393" stop-color="#F57E20"/>
<stop offset="0.6262" stop-color="#F36621"/>
<stop offset="1" stop-color="#F04923"/>
</linearGradient>
<linearGradient id="paint11_linear_24_2" x1="446.422" y1="-6671.26" x2="446.422" y2="6312.42" gradientUnits="userSpaceOnUse">
<stop stop-color="#F6871F"/>
<stop offset="0.2393" stop-color="#F57E20"/>
<stop offset="0.6262" stop-color="#F36621"/>
<stop offset="1" stop-color="#F04923"/>
</linearGradient>
<linearGradient id="paint12_linear_24_2" x1="475.034" y1="-6139.36" x2="475.034" y2="6844.24" gradientUnits="userSpaceOnUse">
<stop stop-color="#F6871F"/>
<stop offset="0.2393" stop-color="#F57E20"/>
<stop offset="0.6262" stop-color="#F36621"/>
<stop offset="1" stop-color="#F04923"/>
</linearGradient>
<linearGradient id="paint13_linear_24_2" x1="7278.72" y1="0" x2="7278.72" y2="12965.3" gradientUnits="userSpaceOnUse">
<stop stop-color="#F6871F"/>
<stop offset="0.2402" stop-color="#F57E20"/>
<stop offset="0.6306" stop-color="#F36621"/>
<stop offset="1" stop-color="#F04923"/>
</linearGradient>
</defs>
</svg>
