<svg width="300" height="300" viewBox="0 0 300 300" fill="none" xmlns="http://www.w3.org/2000/svg">
<g clip-path="url(#clip0_23_4)">
<path d="M150 0C67.1578 0 0 67.159 0 150C0 232.847 67.159 300 150 300C232.848 300 300 232.847 300 150C300 67.1648 232.848 0.00820313 149.998 0.00820313L150 0ZM218.788 216.345C216.101 220.751 210.333 222.148 205.927 219.443C170.708 197.931 126.374 193.058 74.1609 204.988C71.7431 205.538 69.2056 205.106 67.1064 203.786C65.0073 202.466 63.5184 200.366 62.9672 197.948C62.6927 196.752 62.6569 195.512 62.8618 194.302C63.0668 193.091 63.5084 191.933 64.1615 190.893C64.8145 189.853 65.6662 188.952 66.6678 188.242C67.6694 187.532 68.8012 187.026 69.9984 186.754C127.139 173.699 176.15 179.319 215.689 203.483C220.096 206.188 221.493 211.938 218.788 216.345ZM237.148 175.501C233.761 181.003 226.561 182.741 221.062 179.355C180.743 154.573 119.282 147.395 71.5922 161.871C65.407 163.739 58.875 160.254 56.9977 154.079C55.1344 147.894 58.6219 141.374 64.7965 139.494C119.271 122.964 186.994 130.971 233.297 159.424C238.795 162.811 240.533 170.01 237.148 175.501ZM238.724 132.97C190.379 104.255 110.618 101.613 64.4613 115.624C57.0492 117.872 49.2105 113.687 46.9652 106.275C44.7188 98.8594 48.8988 91.0266 56.3168 88.773C109.301 72.6879 197.384 75.7969 253.042 108.839C259.724 112.795 261.908 121.406 257.95 128.064C254.01 134.732 245.375 136.929 238.731 132.97H238.724Z" fill="#1ED760"/>
</g>
<defs>
<clipPath id="clip0_23_4">
<rect width="300" height="300" fill="white"/>
</clipPath>
</defs>
</svg>
